<svg width="164" height="47" viewBox="0 0 164 47" fill="none" xmlns="http://www.w3.org/2000/svg">
<path d="M51.2188 32.5625V46L24.375 46.7812C20.5208 46.6771 17.1146 46.125 14.1562 45.125C11.2188 44.125 8.70833 42.6354 6.625 40.6562C4.54167 38.6562 2.96875 36.2188 1.90625 33.3438C0.84375 30.4688 0.3125 27.1771 0.3125 23.4688C0.3125 19.6771 0.864583 16.4271 1.96875 13.7188C3.07292 10.9896 4.6875 8.625 6.8125 6.625C8.9375 4.625 11.5 3.125 14.5 2.125C17.5 1.125 21.3333 0.5 26 0.25C30.75 0.5 34.9375 1.29167 38.5625 2.625C42.1875 3.95833 45.1458 6.16667 47.4375 9.25C49.7292 12.3333 50.75 16.9167 50.5 23C50 25.75 49.0104 28.1458 47.5312 30.1875C46.0729 32.2292 46.8646 33.0208 49.9062 32.5625H51.2188ZM16.4688 24.0625C16.4688 26.9583 17.1146 29.4792 18.4062 31.625C19.7188 33.7708 22.2917 34.8438 26.125 34.8438V32.625C31.875 33.2083 34.9688 32.4479 35.4062 30.3438C35.8438 28.2188 36.125 26.125 36.25 24.0625C36.125 21.2083 35.4271 18.7083 34.1562 16.5625C32.8854 14.3958 30.2083 13.3125 26.125 13.3125C19.6875 13.3125 16.4688 16.8958 16.4688 24.0625ZM53.125 46V0.875H83.9062C88.8438 0.916667 92.5938 1.77083 95.1562 3.4375C97.7396 5.10417 99.3021 7.89583 99.8438 11.8125C100.031 14.8125 99.3958 17.1667 97.9375 18.875C96.4792 20.5833 94.0729 21.9896 90.7188 23.0938V23.2188C92.3646 23.4271 93.8854 23.875 95.2812 24.5625C96.6771 25.2292 97.8438 26.0312 98.7812 26.9688C99.7396 27.8854 100.479 28.9271 101 30.0938C101.521 31.2604 101.781 32.4062 101.781 33.5312C101.781 37.0938 100.865 39.7917 99.0312 41.625C97.2188 43.4583 94.875 44.6562 92 45.2188C89.1458 45.7812 85.6771 46.0417 81.5938 46H53.125ZM68.6875 28.5312V36.875H78.7188C80.4479 36.9375 81.9583 36.5625 83.25 35.75C84.5417 34.9375 85.1875 33.9375 85.1875 32.75C85.3125 31.4375 84.7812 30.4062 83.5938 29.6562C82.4271 28.9062 80.8021 28.5312 78.7188 28.5312H68.6875ZM68.6875 11.8125V18.6562H79.625C80.2292 18.6562 80.8646 18.3438 81.5312 17.7188C82.1979 17.0729 82.5521 16.2188 82.5938 15.1562C82.5104 13.9271 82.1042 13.0625 81.375 12.5625C80.6667 12.0625 80.0729 11.8125 79.5938 11.8125H68.6875ZM104 46V0.875H133.375C137 1.20833 139.979 2.16667 142.312 3.75C144.646 5.33333 146.354 7.45833 147.438 10.125C148.271 14.125 148.312 17.2083 147.562 19.375C146.812 21.5417 145.5 23.3542 143.625 24.8125C141.75 26.2708 139.062 27.4167 135.562 28.25L138.938 32.5625H163.062V46H134.625L120.312 31.0938V46H104ZM120.312 12.125V20.4375H131.688C132.292 20.4375 132.948 20.2188 133.656 19.7812C134.365 19.3229 134.74 18.1875 134.781 16.375C134.677 14.6458 134.25 13.5104 133.5 12.9688C132.771 12.4062 132.156 12.125 131.656 12.125H120.312Z" fill="black"/>
</svg>
