<svg width="725" height="208" viewBox="0 0 725 208" fill="none" xmlns="http://www.w3.org/2000/svg">
<path d="M81.026 139.736C86.8677 149.286 98.3184 154.061 115.378 154.061C124.542 155.363 145.632 153.18 156.684 134.034M151.121 72.7003C145.466 63.0574 133.551 58.2362 115.378 58.2362C86.7284 58.2362 72.4036 74.1837 72.4036 106.079M80.1692 140.252L80.1729 140.258C86.2707 150.226 98.1328 155.048 115.308 155.061C124.722 156.372 146.24 154.126 157.551 134.534L157.631 134.394L157.664 134.236C159.621 124.734 160.879 115.368 161.438 106.14L161.441 106.087L161.439 106.035C160.876 93.1933 157.734 81.9029 151.983 72.1924C146.054 62.0868 133.672 57.2362 115.378 57.2362C100.87 57.2362 89.8135 61.2791 82.4033 69.5286C75.0115 77.7578 71.4036 90.0021 71.4036 106.079C71.4036 119.12 74.3134 130.523 80.1692 140.252ZM115.519 153.071L115.449 153.061H115.378C98.4733 153.061 87.4585 148.333 81.8806 139.217C76.2413 129.846 73.4036 118.812 73.4036 106.079C73.4036 90.2606 76.9581 78.5836 83.8912 70.8651C90.806 63.1671 101.237 59.2362 115.378 59.2362C133.429 59.2362 144.875 64.0274 150.259 73.2062L150.261 73.2099C155.814 82.5859 158.882 93.5301 159.438 106.071C158.887 115.132 157.654 124.333 155.738 133.673C144.949 152.195 124.447 154.339 115.519 153.071ZM8.79714 60.422L8.79814 60.4195C13.6586 48.4057 20.7623 38.0029 30.1136 29.2017C39.4567 20.4082 50.7321 13.8035 63.9577 9.39493C77.1829 4.98651 94.1287 2.21475 114.823 1.10298C135.863 2.2146 154.38 5.72247 170.386 11.61C186.338 17.4773 199.345 27.1872 209.427 40.7526C219.421 54.1991 223.961 74.3043 222.863 101.24C220.658 113.319 216.311 123.816 209.837 132.752L209.833 132.757C208.182 135.069 207.098 137.118 206.683 138.881C206.26 140.68 206.516 142.304 207.715 143.503C208.845 144.633 210.641 145.199 212.855 145.391C215.082 145.585 217.903 145.415 221.291 144.908H226.058V202.741L107.589 206.188C90.5249 205.725 75.4771 203.28 62.4316 198.87C49.4863 194.463 38.4428 187.906 29.2848 179.206C20.1294 170.417 13.2102 159.7 8.53098 147.039C3.85093 134.375 1.5 119.846 1.5 103.437C1.5 86.6547 3.94405 72.3256 8.79714 60.422ZM362.242 202.712H236.542V3.88312H372.529C394.418 4.0683 410.884 7.85855 422.056 15.1258L422.06 15.1278C433.238 22.3395 440.08 34.449 442.468 51.6604C443.283 64.8247 440.484 75.0038 434.219 82.3428C427.898 89.7481 417.385 95.9311 402.54 100.818L401.853 101.044V101.768V102.324V103.206L402.728 103.316C409.95 104.23 416.61 106.194 422.716 109.201L422.727 109.207C428.854 112.133 433.948 115.64 438.028 119.721L438.036 119.728L438.044 119.736C442.219 123.729 445.433 128.259 447.697 133.329C449.966 138.41 451.085 143.371 451.085 148.219C451.085 163.911 447.053 175.624 439.14 183.534L439.136 183.538C431.23 191.535 420.989 196.783 408.363 199.254L408.362 199.254C395.747 201.74 380.382 202.897 362.253 202.712H362.242ZM304.803 124.967H303.803V125.967V163.101V164.101H304.803H349.429C357.29 164.382 364.21 162.675 370.146 158.941C376.075 155.211 379.219 150.496 379.236 144.79C379.52 141.724 379.044 138.936 377.769 136.462C376.49 133.979 374.44 131.874 371.68 130.13C366.265 126.65 358.818 124.967 349.447 124.967H304.803ZM304.803 50.5605H303.803V51.5605V82.0183V83.0183H304.803H353.48C356.527 83.0183 359.588 81.4445 362.648 78.5759L362.654 78.5703L362.659 78.5647C365.838 75.485 367.498 71.4266 367.692 66.4808L367.694 66.4273L367.691 66.3739C367.307 60.7282 365.422 56.5367 361.839 54.077C358.64 51.8194 355.788 50.5605 353.341 50.5605H304.803ZM617.453 144.908H723.816V202.712H598.684L535.279 136.679L533.558 134.887V137.372V202.712H462.961V3.88312H592.648C608.64 5.35934 621.709 9.58437 631.907 16.5057L632.468 15.6793L631.907 16.5059C642.103 23.4224 649.568 32.6933 654.321 44.343C657.999 62.0437 658.132 75.5205 654.889 84.8902C651.616 94.3436 645.896 102.252 637.698 108.628C629.509 114.997 617.699 120.052 602.196 123.743L600.679 124.104L601.64 125.332L616.665 144.525L616.966 144.908H617.453ZM534.558 51.9512H533.558V52.9512V89.946V90.946H534.558H585.186C588.118 90.946 591.219 89.8855 594.471 87.8758L594.479 87.8705L594.488 87.865C596.323 86.6787 597.636 84.674 598.513 82.0192C599.39 79.3635 599.859 75.9752 599.952 71.8885L599.953 71.8471L599.95 71.8058C599.484 64.0612 597.567 58.5991 593.849 55.9053C590.563 53.3713 587.608 51.9512 585.044 51.9512H534.558Z" stroke="#7D26CD" stroke-width="2"/>
</svg>
