<svg width="676" height="360" viewBox="0 0 676 360" fill="none" xmlns="http://www.w3.org/2000/svg">
<path d="M338.5 357.919V79.3H338.731L338.537 78.8016C338.542 78.7885 338.548 78.7748 338.554 78.7603C338.613 78.6131 338.702 78.3938 338.821 78.1071C339.06 77.5338 339.419 76.6915 339.899 75.6184C340.86 73.4722 342.307 70.4038 344.249 66.7206C348.132 59.3531 353.99 49.5319 361.89 39.7134C377.697 20.0667 401.618 0.5 434.2 0.5H674.98L661.428 21.4H451.7V21.9C451.7 21.4 451.699 21.4 451.698 21.4L451.694 21.4L451.679 21.4001L451.622 21.4005C451.573 21.4009 451.499 21.4019 451.402 21.4037C451.208 21.4074 450.923 21.4147 450.551 21.4292C449.807 21.4583 448.719 21.5164 447.336 21.6324C444.569 21.8644 440.621 22.328 435.885 23.2546C426.415 25.1075 413.783 28.814 401.147 36.2313C375.842 51.0849 350.6 80.7754 350.6 140V336.767L338.5 357.919ZM337.4 78.6467V78.8V357.919L325.3 336.767V140C325.3 80.7754 300.058 51.0849 274.753 36.2313C262.117 28.814 249.485 25.1075 240.015 23.2546C235.279 22.328 231.331 21.8644 228.564 21.6324C227.181 21.5164 226.093 21.4583 225.349 21.4292C224.977 21.4147 224.692 21.4074 224.498 21.4037C224.401 21.4019 224.327 21.4009 224.278 21.4005L224.221 21.4001L224.206 21.4L224.202 21.4C224.201 21.4 224.2 21.4 224.2 21.9V21.4H14.4717L0.920109 0.5H241.7C274.282 0.5 298.228 20.0668 314.061 39.7137C321.973 49.5323 327.843 59.3535 331.736 66.7211C333.682 70.4043 335.133 73.4727 336.097 75.6189C336.578 76.6919 336.939 77.5343 337.178 78.1076C337.27 78.3277 337.344 78.5082 337.4 78.6467ZM302.399 118.742L302.4 118.748V287.47L281.5 261.225V131.3C281.5 100.479 265.389 83.9292 249.29 75.1115C241.251 70.7081 233.217 68.232 227.196 66.8563C224.184 66.1682 221.673 65.7548 219.914 65.5132C219.034 65.3924 218.341 65.3146 217.868 65.2669C217.631 65.243 217.449 65.2267 217.325 65.2163C217.264 65.211 217.216 65.2073 217.184 65.2049L217.148 65.2021L217.138 65.2014L217.136 65.2013C217.135 65.2012 217.134 65.2012 217.1 65.7L217.134 65.2012L217.117 65.2H217.1H66.9835L54.4219 44.2H217.1C252.739 44.2 274.05 62.8259 286.471 81.4772C292.686 90.8078 296.672 100.142 299.104 107.145C300.32 110.646 301.147 113.562 301.67 115.601C301.931 116.621 302.116 117.421 302.236 117.965C302.296 118.237 302.339 118.445 302.367 118.585C302.382 118.654 302.392 118.707 302.399 118.742ZM458.9 44.2H621.578L609.016 65.2H458.9H458.883L458.866 65.2012L458.9 65.7C458.866 65.2012 458.865 65.2012 458.864 65.2013L458.862 65.2014L458.852 65.2021L458.816 65.2049C458.784 65.2073 458.736 65.211 458.675 65.2163C458.551 65.2267 458.369 65.243 458.132 65.2669C457.659 65.3146 456.966 65.3924 456.086 65.5132C454.327 65.7548 451.816 66.1682 448.804 66.8563C442.783 68.232 434.749 70.7081 426.71 75.1115C410.611 83.9292 394.5 100.479 394.5 131.3V261.225L373.6 287.47V118.748L373.601 118.742C373.608 118.707 373.618 118.654 373.633 118.585C373.661 118.445 373.704 118.237 373.764 117.965C373.884 117.421 374.069 116.621 374.33 115.601C374.853 113.562 375.68 110.646 376.896 107.145C379.328 100.142 383.314 90.8078 389.529 81.4772C401.95 62.8259 423.261 44.2 458.9 44.2ZM123.868 108.9L107.033 83.6H194.9C223.794 83.6 239.747 95.1019 248.49 106.553C252.869 112.289 255.45 118.026 256.935 122.329C257.678 124.48 258.146 126.27 258.428 127.521C258.569 128.146 258.664 128.636 258.723 128.968C258.752 129.134 258.773 129.26 258.786 129.344C258.792 129.384 258.797 129.415 258.8 129.436V208.668L233.5 179.712V140C233.5 131.118 230.366 124.7 225.646 120.095C220.94 115.504 214.687 112.741 208.478 111.092C202.266 109.441 196.062 108.895 191.418 108.76C189.094 108.692 187.157 108.727 185.799 108.78C185.12 108.806 184.586 108.836 184.221 108.86C184.038 108.872 183.898 108.883 183.803 108.89C183.755 108.894 183.719 108.897 183.694 108.899L183.679 108.9H123.868ZM481.1 83.6H568.967L552.132 108.9H492.321L492.306 108.899C492.281 108.897 492.245 108.894 492.197 108.89C492.102 108.883 491.962 108.872 491.779 108.86C491.414 108.836 490.88 108.806 490.201 108.78C488.843 108.727 486.906 108.692 484.582 108.76C479.938 108.895 473.734 109.441 467.522 111.092C461.313 112.741 455.06 115.504 450.354 120.095C445.634 124.7 442.5 131.118 442.5 140V179.712L417.2 208.668V129.436L417.204 129.405C417.207 129.389 417.21 129.368 417.214 129.344C417.227 129.26 417.248 129.134 417.277 128.968C417.336 128.636 417.431 128.146 417.572 127.521C417.854 126.27 418.322 124.48 419.065 122.329C420.55 118.026 423.131 112.289 427.51 106.553C436.253 95.1019 452.206 83.6 481.1 83.6Z" stroke="#AE062C"/>
</svg>
