<svg width="140" height="40" viewBox="0 0 140 40" fill="none" xmlns="http://www.w3.org/2000/svg">
<path d="M43.7124 27.7849V39.3118L20.6515 40C17.2956 39.914 14.37 39.3978 11.8746 38.5376C9.37922 37.6774 7.22803 36.3871 5.42102 34.6667C3.61401 32.9462 2.23725 30.8817 1.37677 28.3871C0.516288 25.8925 0 23.0538 0 19.871C0 16.6882 0.516288 13.8495 1.46281 11.4409C2.40934 9.11828 3.78611 7.05376 5.59312 5.33333C7.40012 3.6129 9.55132 2.49462 12.1328 1.63441C14.7142 0.774194 17.984 0.172043 22.0283 0C26.1586 0.172043 29.6865 0.860215 32.8703 2.06452C35.968 3.1828 38.5495 5.07527 40.5286 7.74194C42.5077 10.4086 43.3682 14.3656 43.1961 19.6129C42.7658 22.0215 41.9053 24 40.6146 25.8065C39.3239 27.5269 40.0123 28.2151 42.6798 27.871H43.7984L43.7124 27.7849ZM13.8537 20.4731C13.8537 22.9677 14.37 25.1183 15.4886 27.0108C16.6073 28.8172 18.8445 29.7634 22.1143 29.7634C27.1051 30.2796 29.6865 27.6989 30.1168 25.8925C30.461 24.086 30.7191 22.2796 30.8052 20.4731C30.7191 17.9785 30.1168 15.828 28.9982 14.0215C27.8795 12.129 25.6423 11.2688 22.1143 11.2688C16.6073 11.2688 13.7677 14.3656 13.7677 20.5591L13.8537 20.4731ZM45.4333 39.3118V0.516129H71.9361C76.1524 0.516129 79.4223 1.29032 81.5735 2.75269C83.8107 4.21505 85.1014 6.62366 85.6177 9.9785C85.7898 12.5591 85.2735 14.6237 83.9828 16.086C82.6921 17.5484 80.6269 18.7527 77.7873 19.6989C79.1641 19.957 80.5409 20.3871 81.7455 20.9892C82.9502 21.5914 83.9828 22.2796 84.7572 23.0538C85.6177 23.828 86.22 24.7742 86.6503 25.7204C87.0805 26.7527 87.3387 27.6989 87.3387 28.6452C87.3387 31.7419 86.5642 34.0645 85.0154 35.6129C83.4665 37.1613 81.4014 38.1935 78.992 38.7097C76.4966 39.2258 73.571 39.3978 70.043 39.3978H45.5194L45.4333 39.3118ZM58.8568 24.2581V31.3978H67.4616C68.9244 31.3978 70.2151 31.1398 71.3337 30.4516C72.4524 29.7634 72.9687 28.9032 72.9687 27.871C73.0547 26.7527 72.6245 25.8925 71.5919 25.2043C70.5593 24.5161 69.1825 24.2581 67.3755 24.2581H58.7707H58.8568ZM58.8568 9.89247V15.7419H68.236C68.7523 15.7419 69.2686 15.4839 69.8709 14.9677C70.4733 14.4516 70.7314 13.6774 70.8175 12.7312C70.8175 11.6989 70.3872 10.9247 69.7849 10.4946C69.1825 10.0645 68.6663 9.80645 68.236 9.80645H58.8568V9.89247ZM89.2317 39.3118V0.516129H114.53C117.628 0.774194 120.209 1.63441 122.188 3.01075C124.167 4.3871 125.63 6.19355 126.577 8.51613C127.265 11.957 127.351 14.6237 126.663 16.4301C125.974 18.2366 124.856 19.871 123.307 21.0753C121.758 22.2796 119.348 23.3118 116.337 24L119.262 27.6989H140V39.2258H115.562L103.258 26.4086V39.2258H89.2317V39.3118ZM103.171 10.2366V17.3763H112.981C113.497 17.3763 114.1 17.2043 114.702 16.7742C115.304 16.3441 115.648 15.3979 115.648 13.8495C115.562 12.3871 115.218 11.3548 114.53 10.9247C113.927 10.4086 113.411 10.2366 112.981 10.2366H103.258H103.171Z" fill="#7D25CD"/>
</svg>
