<svg width="24" height="24" viewBox="0 0 24 24" fill="none" xmlns="http://www.w3.org/2000/svg">
<path d="M5.37321 22.1818C5.37321 23.186 4.55919 24 3.55503 24H2.21461C1.21046 24 0.396429 23.186 0.396429 22.1818V9.79497C0.396429 8.79081 1.21046 7.97679 2.21461 7.97679H3.55503C4.55919 7.97679 5.37321 8.79081 5.37321 9.79497V22.1818ZM2.88214 5.79107C1.29107 5.79107 0 4.47321 0 2.88214C0 1.29107 1.29107 0 2.88214 0C4.47321 0 5.76429 1.29107 5.76429 2.88214C5.76429 4.47321 4.47321 5.79107 2.88214 5.79107ZM23.9946 24H20.8468C19.8426 24 19.0286 23.186 19.0286 22.1818V16.2C19.0286 14.3411 18.9911 11.9571 16.4411 11.9571C13.8536 11.9571 13.4571 13.9768 13.4571 16.0661V22.1818C13.4571 23.186 12.6431 24 11.639 24H10.3039C9.29974 24 8.48571 23.186 8.48571 22.1818V9.79497C8.48571 8.79081 9.29974 7.97679 10.3039 7.97679H12.1661C12.7696 7.97679 13.2589 8.46607 13.2589 9.06964V10.1191C13.2589 10.143 13.2784 10.1625 13.3024 10.1625C13.3185 10.1625 13.3332 10.1538 13.3408 10.1396C14.0126 8.8875 15.6308 7.575 18.0375 7.575C23.0732 7.575 24 10.8911 24 15.1982V23.9946C24 23.9976 23.9976 24 23.9946 24Z" fill="white"/>
</svg>
