<svg viewBox="0 0 16 14" xmlns="http://www.w3.org/2000/svg">
<path d="M16 2.00886C15.405 2.26739 14.771 2.43876 14.11 2.52197C14.79 2.1198 15.309 1.48782 15.553 0.726072C14.919 1.10051 14.219 1.36499 13.473 1.51258C12.871 0.877632 12.013 0.484375 11.077 0.484375C9.26097 0.484375 7.79897 1.94447 7.79897 3.73442C7.79897 3.99197 7.82097 4.23961 7.87497 4.47536C5.148 4.34362 2.735 3.04895 1.114 1.07674C0.831 1.5631 0.665 2.1198 0.665 2.71909C0.665 3.84437 1.25 4.84185 2.122 5.41939C1.595 5.40945 1.078 5.25791 0.64 5.01916C0.64 5.02911 0.64 5.04196 0.64 5.05482C0.64 6.63379 1.777 7.94533 3.268 8.24745C3.001 8.31974 2.71 8.35442 2.408 8.35442C2.198 8.35442 1.986 8.34253 1.787 8.29893C2.212 9.58568 3.418 10.5317 4.852 10.5624C3.736 11.4272 2.319 11.9482 0.785 11.9482C0.516 11.9482 0.258 11.9363 0 11.9036C1.453 12.8318 3.175 13.3617 5.032 13.3617C11.068 13.3617 14.368 8.40888 14.368 4.11579C14.368 3.97216 14.363 3.83348 14.356 3.69579C15.007 3.23815 15.554 2.66659 16 2.00886Z"/>
</svg>
