<svg version="1.1" xmlns="http://www.w3.org/2000/svg" xmlns:xlink="http://www.w3.org/1999/xlink" viewBox="0 0 16.8 16.8" style="enable-background:new 0 0 16.8 16.8;" xml:space="preserve">
	<path d="M4.3,1h11.5 M15.8,1v11.5 M15.8,1L1,15.8"/>
	<path class="st0" d="M1,16.8c-0.3,0-0.5-0.1-0.7-0.3c-0.4-0.4-0.4-1,0-1.4L13.4,2H4.3c-0.6,0-1-0.4-1-1s0.4-1,1-1h11.5 c0.1,0,0.3,0,0.4,0.1c0.1,0,0.2,0.1,0.3,0.2c0,0,0,0,0,0l0,0c0,0,0,0,0,0c0,0,0,0,0,0c0.1,0.1,0.2,0.2,0.2,0.3 c0,0.1,0.1,0.2,0.1,0.4c0,0,0,0,0,0l0,0c0,0,0,0,0,0v11.5c0,0.6-0.4,1-1,1s-1-0.4-1-1V3.4L1.7,16.6C1.5,16.8,1.3,16.8,1,16.8z"/>
</svg>
